<svg xmlns="http://www.w3.org/2000/svg" version="1.1" xmlns:xlink="http://www.w3.org/1999/xlink" xmlns:svgjs="http://svgjs.com/svgjs" width="1440" height="560" preserveAspectRatio="none" viewBox="0 0 1440 560"><g mask="url(&quot;#SvgjsMask1017&quot;)" fill="none"><rect width="1440" height="560" x="0" y="0" fill="rgba(214, 233, 253, 1)"></rect><path d="M 0,19 C 57.6,57 172.8,188 288,209 C 403.2,230 460.8,123.6 576,124 C 691.2,124.4 748.8,227.6 864,211 C 979.2,194.4 1036.8,31.8 1152,41 C 1267.2,50.2 1382.4,213.8 1440,257L1440 560L0 560z" fill="rgba(79, 133, 189, 1)"></path><path d="M 0,428 C 57.6,420.8 172.8,371 288,392 C 403.2,413 460.8,549 576,533 C 691.2,517 748.8,328 864,312 C 979.2,296 1036.8,439.6 1152,453 C 1267.2,466.4 1382.4,393.8 1440,379L1440 560L0 560z" fill="rgba(138, 183, 232, 1)"></path></g><defs><mask id="SvgjsMask1017"><rect width="1440" height="560" fill="#ffffff"></rect></mask></defs></svg>